<svg width="171" height="171" viewBox="0 0 171 171" fill="none" xmlns="http://www.w3.org/2000/svg">
<path fill-rule="evenodd" clip-rule="evenodd" d="M98.01 5.85188C91.1315 -0.887462 80.1262 -0.887462 73.2478 5.85188C68.8252 10.185 62.4592 11.8908 56.4626 10.3494C47.1361 7.95221 37.6052 13.4549 35.018 22.7305C33.3545 28.6944 28.6943 33.3546 22.7304 35.0181C13.4548 37.6053 7.95208 47.1362 10.3493 56.4628C11.8906 62.4594 10.1849 68.8254 5.85175 73.2479C-0.887592 80.1263 -0.887591 91.1317 5.85175 98.0101C10.1849 102.433 11.8906 108.799 10.3493 114.795C7.95208 124.122 13.4548 133.653 22.7304 136.24C28.6943 137.903 33.3545 142.564 35.018 148.527C37.6052 157.803 47.1361 163.306 56.4626 160.909C62.4592 159.367 68.8252 161.073 73.2478 165.406C80.1262 172.145 91.1315 172.145 98.01 165.406C98.0783 165.339 98.147 165.273 98.2163 165.207C72.9015 160.708 39.7448 145.918 39.7448 120.198C39.7448 99.6691 60.866 77.2625 82.2639 64.2187C82.2715 64.1553 82.2817 64.0916 82.2945 64.0275L88.1061 34.9695C88.4841 33.0798 90.8285 32.3916 92.1679 33.7772L110.9 53.1556C111.745 53.0805 112.564 53.0423 113.357 53.0423C121.74 53.0423 129.574 56.0822 136.237 61.3567L160.484 58.7021C160.577 57.9529 160.718 57.205 160.908 56.4628C163.306 47.1362 157.803 37.6053 148.527 35.0181C142.563 33.3546 137.903 28.6944 136.24 22.7305C133.653 13.4549 124.122 7.95221 114.795 10.3494C108.799 11.8908 102.432 10.185 98.01 5.85188ZM163.683 71.2003L153.455 86.6745C155.904 93.7562 157.266 101.605 157.266 109.866C157.266 118.609 155.741 126.891 153.015 134.29C159.482 130.334 162.888 122.495 160.908 114.795C159.367 108.799 161.073 102.433 165.406 98.0101C172.145 91.1317 172.145 80.1263 165.406 73.2479C164.775 72.6042 164.2 71.9192 163.683 71.2003Z" fill="url(#paint0_linear_157_2188)"/>
<path d="M38.7073 79.3292C39.4073 78.6292 40.5422 78.6292 41.2422 79.3292L78.2856 116.373C78.9856 117.073 78.9856 118.208 78.2856 118.908C77.5857 119.608 76.4508 119.608 75.7508 118.908L38.7073 81.8641C38.0073 81.1641 38.0073 80.0292 38.7073 79.3292Z" fill="white"/>
<path d="M80.6233 96.6885C81.7436 94.2962 83.6448 91.0299 85.6842 88.8885C86.7186 87.8025 87.6296 87.1766 88.3414 86.9629C88.8911 86.7979 89.3483 86.8494 89.9092 87.391C91.3541 88.7863 91.6934 90.9572 91.2236 93.5607C90.7606 96.1267 89.5738 98.6732 88.6249 100.206C88.1039 101.048 88.3639 102.153 89.2056 102.674C90.0474 103.195 91.1521 102.935 91.6731 102.093C92.7928 100.284 94.1889 97.3153 94.7515 94.1972C95.3073 91.1166 95.115 87.4346 92.3995 84.8123C90.8802 83.3452 89.0677 83.002 87.3107 83.5294C85.7157 84.0082 84.2828 85.162 83.0883 86.4162C80.6702 88.9551 78.5744 92.611 77.3768 95.1681C76.9569 96.0646 77.3433 97.1317 78.2398 97.5516C79.1363 97.9714 80.2034 97.585 80.6233 96.6885Z" fill="white"/>
<path d="M103.561 117.025C102.919 117.117 102.312 117.139 101.742 117.106L101.024 125.999C101.018 126.076 101.007 126.152 100.991 126.227C100.631 127.922 100.612 130.511 101.627 132.716C102.581 134.786 104.519 136.699 108.548 137.166C109.532 137.28 110.237 138.17 110.123 139.153C110.009 140.137 109.119 140.841 108.136 140.727C102.888 140.119 99.8585 137.444 98.3714 134.216C97.5224 132.373 97.2029 130.414 97.183 128.662C96.6082 129.668 95.946 130.519 95.2017 131.224C93.8446 132.511 92.2954 133.24 90.7041 133.6C87.6251 134.296 84.3258 133.609 81.8615 133.086C80.8931 132.881 80.2746 131.929 80.48 130.961C80.6855 129.992 81.637 129.374 82.6054 129.579C85.1944 130.129 87.7223 130.599 89.9129 130.103C90.9565 129.867 91.9028 129.412 92.7353 128.623C93.5759 127.826 94.3802 126.612 95.0134 124.744C96.4307 120.562 97.2152 118.432 97.6762 117.209C97.7508 117.011 97.8153 116.84 97.8712 116.692C97.9888 116.382 98.0691 116.169 98.1267 116.009C96.9937 115.333 96.2076 114.47 95.7954 113.783C95.2861 112.934 95.5613 111.833 96.4102 111.324C97.259 110.814 98.36 111.09 98.8694 111.938C99.1644 112.43 100.545 113.834 103.054 113.476C104.034 113.336 104.942 114.017 105.082 114.997C105.222 115.977 104.541 116.885 103.561 117.025Z" fill="white"/>
<path d="M116.276 107.113C115.998 104.325 115.917 100.306 116.51 97.2244C116.812 95.6539 117.246 94.5693 117.719 93.9829C117.934 93.7162 118.113 93.6071 118.247 93.5594C118.372 93.5147 118.586 93.4768 118.96 93.5737C120.736 94.0336 122.109 95.7949 123.042 98.4877C123.946 101.1 124.248 104.084 124.24 106.012C124.236 107.004 125.033 107.799 126.022 107.79C127.01 107.78 127.815 106.968 127.819 105.977C127.829 103.759 127.493 100.353 126.425 97.2665C125.384 94.2606 123.448 91.0149 119.902 90.0964C118.945 89.8487 117.99 89.857 117.088 90.1792C116.195 90.4986 115.491 91.0772 114.949 91.7494C113.908 93.0405 113.333 94.8373 112.996 96.5927C112.308 100.163 112.421 104.574 112.715 107.521C112.813 108.506 113.69 109.214 114.674 109.101C115.657 108.988 116.375 108.098 116.276 107.113Z" fill="white"/>
<path d="M34.5475 107.293C33.6048 106.991 32.5956 107.51 32.2932 108.452C31.9909 109.395 32.5099 110.404 33.4525 110.707L65.1187 120.864C66.0614 121.166 67.0706 120.647 67.373 119.704C67.6753 118.762 67.1563 117.753 66.2136 117.45L34.5475 107.293Z" fill="white"/>
<path d="M165.323 117.338C165.045 116.301 164.104 115.596 163.221 115.763L116.729 124.543C115.846 124.71 115.355 125.685 115.632 126.722C115.91 127.759 116.851 128.464 117.734 128.297L164.226 119.518C165.109 119.351 165.6 118.375 165.323 117.338Z" fill="white"/>
<path d="M153.283 138.618C154.199 138.775 154.925 139.751 154.905 140.798C154.885 141.844 154.126 142.566 153.21 142.409L123.103 137.257C122.187 137.1 121.461 136.124 121.481 135.077C121.501 134.03 122.259 133.309 123.175 133.466L153.283 138.618Z" fill="white"/>
<defs>
<linearGradient id="paint0_linear_157_2188" x1="132.5" y1="16" x2="30" y2="100.5" gradientUnits="userSpaceOnUse">
<stop stop-color="#4A5BE6"/>
<stop offset="1" stop-color="#18C048"/>
</linearGradient>
</defs>
</svg>
